<svg version="1.1" id="Layer_1" xmlns="http://www.w3.org/2000/svg" xmlns:xlink="http://www.w3.org/1999/xlink" x="0px" y="0px"
	 width="100%" viewBox="0 0 1024 1024" enable-background="new 0 0 1024 1024" xml:space="preserve">
<path fill="#000000" opacity="1.000000" stroke="none" 
	d="
M673.002808,213.938812 
	C687.496948,223.775467 701.670715,233.445419 715.894226,243.041428 
	C718.030334,244.482574 719.574402,246.106384 720.598022,248.592010 
	C741.199646,298.622253 761.869263,348.624634 782.641052,398.584442 
	C783.890930,401.590454 784.126160,404.072205 782.760986,407.090149 
	C778.027283,417.554688 773.633911,428.173157 768.900208,438.637634 
	C767.529968,441.666595 767.706665,444.132935 769.202820,447.061096 
	C787.693542,483.249420 806.008118,519.527954 824.578918,555.674927 
	C826.778198,559.955750 826.555908,562.617249 822.947632,565.986023 
	C814.670837,573.713440 806.790649,581.871643 798.889465,589.991333 
	C796.623474,592.319946 794.252686,593.395081 790.971313,593.277039 
	C785.147156,593.067627 779.308594,593.296387 773.477173,593.235046 
	C770.561890,593.204468 769.213928,594.392883 769.250122,597.392639 
	C769.414734,611.034058 768.848755,624.704895 770.049011,638.303467 
	C770.600159,644.547363 769.152710,649.458923 764.153870,653.231140 
	C760.380676,656.078491 758.998352,659.743164 759.236572,664.519043 
	C759.584839,671.500427 759.023438,678.529480 759.424316,685.505127 
	C759.707214,690.426636 757.766113,693.575378 754.057373,696.467896 
	C749.339233,700.147705 745.046509,704.368286 740.483398,708.253601 
	C738.390076,710.035889 738.031555,711.873291 739.082581,714.420288 
	C741.749084,720.881714 744.091797,727.477478 746.796570,733.921997 
	C747.842285,736.413513 747.850342,738.666382 747.048767,741.151672 
	C741.123108,759.522705 735.118896,777.870422 729.458862,796.323486 
	C728.237915,800.303894 726.321838,801.378723 722.368164,801.364990 
	C684.541870,801.233887 646.714233,801.394836 608.888733,801.173096 
	C603.491882,801.141479 600.999023,802.603210 599.593140,808.052246 
	C592.489502,835.584839 584.896729,862.990906 577.662354,890.490417 
	C576.707458,894.120300 575.011108,895.617920 571.405396,895.120178 
	C571.078186,895.075012 570.738953,895.124878 570.406494,895.108215 
	C555.814331,894.376160 540.690308,897.864990 526.728149,893.098389 
	C512.949341,888.394348 500.141785,880.850037 486.898041,874.573120 
	C424.900299,845.189026 362.920166,815.767395 300.856384,786.523376 
	C296.257172,784.356262 294.610474,781.666016 294.627350,776.605042 
	C294.800232,724.614685 294.711365,672.623413 294.806122,620.632629 
	C294.813416,616.616028 293.909302,613.288086 291.509430,609.991943 
	C270.211945,580.740112 252.624832,549.473450 241.218292,515.002686 
	C234.044571,493.323578 229.262009,471.164795 227.529572,448.274750 
	C224.405807,407.001678 229.364914,366.924957 243.903915,328.160461 
	C259.405426,286.829712 284.784821,252.542557 318.565186,224.254074 
	C341.158783,205.333649 366.240692,190.930115 393.887909,180.767990 
	C409.200531,175.139587 424.995483,176.171219 440.774597,176.199966 
	C456.251282,176.228180 471.728088,176.167068 487.204681,176.209610 
	C500.850372,176.247131 514.495850,176.449997 528.141296,176.440018 
	C542.781006,176.429306 557.431458,175.861984 572.057129,176.264893 
	C586.310608,176.657516 600.652588,175.346024 614.803894,178.703308 
	C626.253601,181.419678 634.903564,188.914703 644.425354,194.911072 
	C654.004883,200.943756 663.286377,207.449570 673.002808,213.938812 
M503.324524,429.502136 
	C503.325043,460.829712 503.397644,492.157654 503.242767,523.484436 
	C503.221313,527.817078 504.430542,530.948425 507.557129,534.004578 
	C532.461853,558.348022 557.184387,582.877808 582.059021,607.252197 
	C584.399902,609.545898 585.409729,611.859131 585.378906,615.118286 
	C585.241821,629.615723 585.349304,644.115417 585.273315,658.613708 
	C585.264648,660.277466 586.070129,662.303772 584.057068,663.608337 
	C582.167114,662.994690 581.063965,661.455688 579.785950,660.185059 
	C541.853760,622.470276 503.960724,584.716064 465.968964,547.061462 
	C463.281128,544.397461 462.809814,541.473206 462.809692,538.033752 
	C462.808228,503.203613 462.692200,468.373322 462.773651,433.543488 
	C462.782959,429.556549 461.609711,426.529572 458.838501,423.768524 
	C442.547699,407.537872 426.307831,391.255829 410.109924,374.932465 
	C408.199677,373.007446 406.141357,372.206116 403.450623,372.246735 
	C395.619690,372.364899 387.785980,372.303406 379.953339,372.303436 
	C345.623016,372.303589 311.292419,372.367432 276.962769,372.214386 
	C272.655426,372.195190 270.479156,373.548828 269.793427,377.829651 
	C268.927216,383.237335 267.704712,388.587494 266.658875,393.966949 
	C265.302887,400.941681 265.957947,401.733398 273.115143,401.734772 
	C311.111786,401.742126 349.108765,401.814209 387.104706,401.653961 
	C391.891113,401.633789 393.544037,403.081390 393.382050,407.903290 
	C393.068909,417.225372 393.027039,426.575165 393.385071,435.893829 
	C393.580719,440.986511 391.857697,442.459625 386.837463,442.413025 
	C362.841675,442.190338 338.842621,442.317749 314.844727,442.318848 
	C300.512665,442.319519 286.178467,442.454071 271.849762,442.234161 
	C267.397583,442.165863 266.036133,443.736115 266.216156,448.063019 
	C266.480194,454.407959 267.900177,460.572845 268.503296,466.848877 
	C269.012726,472.149139 271.485962,473.876495 276.995300,473.836334 
	C314.156769,473.565155 351.321289,473.734772 388.484192,473.594086 
	C392.162903,473.580170 393.482330,474.492462 393.389282,478.300171 
	C393.161377,487.627014 393.333618,496.963379 393.318878,506.295837 
	C393.306458,514.154175 393.290283,514.154785 385.204865,514.149536 
	C353.874664,514.129150 322.544434,514.085205 291.214325,514.131653 
	C288.686188,514.135437 285.915588,513.352966 283.588318,515.181946 
	C283.568451,518.146912 284.861542,520.531738 285.803589,522.975403 
	C296.035278,549.515381 311.047577,573.220886 329.007355,595.121582 
	C331.818329,598.549377 333.187988,602.001099 333.158905,606.448853 
	C333.046692,623.612732 333.236420,640.778320 333.253601,657.943359 
	C333.285645,689.940491 333.354706,721.938110 333.186096,753.934326 
	C333.164307,758.065247 334.329803,760.558533 338.235168,761.837524 
	C339.806732,762.352295 341.265717,763.210449 342.776733,763.910645 
	C376.473450,779.524536 410.152954,795.175720 443.872742,810.739502 
	C469.123383,822.394348 494.419067,833.951721 519.710938,845.516907 
	C525.183228,848.019226 525.436096,847.860046 526.952515,841.853088 
	C528.458252,835.888367 529.485352,829.764709 531.484680,823.973938 
	C533.269226,818.805237 531.631042,815.689819 527.707520,812.479126 
	C511.076141,798.869446 494.619171,785.046692 478.100281,771.299500 
	C447.748260,746.040039 417.690521,720.436157 387.923462,694.488708 
	C384.267120,691.301514 382.578003,687.955383 382.606232,682.920715 
	C382.808990,646.758484 382.684387,610.594421 382.713013,574.430969 
	C382.714386,572.702026 382.099823,570.789978 383.452515,569.260620 
	C384.912354,569.062927 385.722839,570.013611 386.515198,570.803162 
	C397.256531,581.505554 407.975677,592.230286 418.681549,602.968140 
	C420.269470,604.560791 420.959595,606.561768 421.238525,608.792480 
	C423.607849,627.740723 426.046082,646.680237 428.402527,665.630066 
	C428.870361,669.391907 430.475128,671.750061 434.175140,673.447754 
	C459.147247,684.905762 484.023376,696.574524 508.877319,708.288086 
	C547.587769,726.532104 586.256775,744.863831 624.938965,763.167725 
	C626.602234,763.954773 628.233459,764.712036 630.148560,764.710510 
	C652.479858,764.692871 674.811279,764.678467 697.142456,764.735962 
	C699.677429,764.742493 701.349609,763.779541 702.072327,761.421509 
	C704.314087,754.107788 706.516541,746.781311 708.646301,739.434326 
	C709.176086,737.606750 708.542847,735.849548 707.820129,734.110901 
	C702.961975,722.424927 698.152161,710.718811 693.342896,699.012573 
	C692.225891,696.293640 690.705139,693.694092 690.474548,690.153137 
	C697.280518,687.793518 704.028137,685.503906 710.741211,683.116882 
	C726.638428,677.464111 723.189941,681.352234 723.791992,665.166992 
	C723.965881,660.493530 722.257935,659.221619 717.742004,659.186523 
	C696.924500,659.025024 676.109314,658.544556 655.294189,658.133362 
	C653.571045,658.099426 651.565308,658.711975 650.346069,656.746094 
	C650.507019,654.849182 652.193787,654.487671 653.369202,653.686584 
	C662.869324,647.211182 672.538513,641.003723 682.402100,635.088257 
	C685.086609,633.478333 687.697388,632.612061 690.832458,632.641541 
	C702.997009,632.755859 715.164368,632.607910 727.328125,632.761414 
	C731.208008,632.810303 732.747070,631.293701 732.705505,627.471252 
	C732.600525,617.806641 732.558350,608.138184 732.724854,598.475403 
	C732.791260,594.619873 731.418091,593.094177 727.490051,593.182190 
	C718.661621,593.379883 709.826050,593.313110 700.994080,593.250549 
	C699.279907,593.238403 697.340942,593.918335 695.675049,592.182617 
	C695.882812,591.448792 695.974609,590.610168 696.339050,589.914368 
	C702.215942,578.694275 708.633362,567.783203 715.184387,556.946594 
	C716.924927,554.067444 719.528564,553.757874 722.502991,553.770996 
	C739.667603,553.846985 756.832642,553.862122 773.997437,553.840393 
	C775.903076,553.837952 777.970825,554.489746 779.896912,552.888062 
	C778.278870,547.424011 775.183350,542.664978 772.558167,537.718994 
	C757.641663,509.616150 743.079712,481.334290 728.881897,452.860626 
	C726.471741,448.027130 725.943726,443.860291 728.154724,438.754456 
	C731.721741,430.517395 734.000061,421.706879 737.766846,413.576019 
	C741.561157,405.385956 741.108276,398.180298 737.591248,389.883240 
	C721.801819,352.633636 706.608826,315.131226 691.218811,277.712494 
	C689.770569,274.191223 688.555115,270.777374 685.029419,268.405548 
	C660.699097,252.037903 636.481323,235.502594 612.274719,218.952011 
	C609.552124,217.090500 606.799316,216.180984 603.457458,216.185074 
	C541.796631,216.260422 480.135712,216.244644 418.474823,216.268890 
	C415.989777,216.269867 413.531342,216.315262 411.058929,217.011780 
	C381.242706,225.411560 355.600403,241.171280 333.032562,261.983276 
	C317.632782,276.184937 305.337097,293.052429 294.477753,310.902069 
	C290.640289,317.209686 286.937378,323.701843 284.606018,330.760651 
	C286.916046,332.224579 288.963654,331.677429 290.898071,331.679016 
	C333.727600,331.714294 376.557251,331.737213 419.386627,331.651917 
	C422.940277,331.644836 425.561707,332.495270 428.139221,335.189972 
	C449.444855,357.464630 470.531403,379.974091 492.548615,401.529572 
	C500.608612,409.420593 505.268616,417.282776 503.324524,429.502136 
z"/>
<path fill="#000000" opacity="1.000000" stroke="none" 
	d="
M596.687805,488.394836 
	C576.617065,477.953308 556.293945,468.802063 536.420288,457.462067 
	C540.840515,451.384094 546.477966,447.475037 551.508789,443.008240 
	C567.575989,428.742554 583.809570,414.664459 599.898926,400.423584 
	C602.651978,397.986816 605.452698,396.617035 609.271423,396.633179 
	C639.268555,396.760254 669.266724,396.787994 699.263733,396.647308 
	C703.575989,396.627075 706.291016,397.984161 708.695190,401.634155 
	C712.801270,407.868011 717.531982,413.690491 722.274902,420.054199 
	C716.144775,426.182129 710.231995,432.185303 704.193726,438.059479 
	C702.805054,439.410431 700.762512,439.100983 698.924561,439.098236 
	C692.091980,439.088013 685.257629,439.196625 678.427612,439.065460 
	C674.782104,438.995453 673.263977,440.583099 673.327148,444.137054 
	C673.560974,457.294678 672.952026,470.460358 673.742981,483.615326 
	C673.872009,485.760345 673.589905,487.932098 673.469055,490.089844 
	C673.065308,497.299591 673.060303,497.295898 665.585938,497.292603 
	C651.587036,497.286438 637.581848,497.039215 623.591980,497.392609 
	C617.330566,497.550781 611.799072,496.098267 606.430847,493.170380 
	C603.368164,491.500031 600.169556,490.078979 596.687805,488.394836 
M614.273071,470.159454 
	C616.363770,470.659058 618.430603,471.372345 620.550659,471.608246 
	C623.731995,471.962219 625.676636,470.539337 625.683228,467.102020 
	C625.698486,459.113434 625.710388,451.124817 625.720398,443.136230 
	C625.722961,441.110199 625.198608,439.488708 622.775513,439.326080 
	C617.241028,438.954681 611.934265,438.834534 607.461304,443.276093 
	C603.460022,447.249298 598.830322,450.581848 594.637756,454.373810 
	C592.757996,456.073944 590.104492,457.068176 588.857788,460.011932 
	C597.027466,463.928680 605.141724,467.229431 614.273071,470.159454 
z"/>
</svg>