<svg version="1.1" id="Layer_1" xmlns="http://www.w3.org/2000/svg" xmlns:xlink="http://www.w3.org/1999/xlink" x="0px" y="0px"
	 width="100%" viewBox="0 0 1323 1372" enable-background="new 0 0 1323 1372" xml:space="preserve">
<path fill="#000000" opacity="1.000000" stroke="none" 
	d="
M725.000000,1373.000000 
	C483.333344,1373.000000 242.166672,1373.000000 1.000000,1373.000000 
	C1.000000,915.666687 1.000000,458.333344 1.000000,1.000000 
	C442.000000,1.000000 883.000000,1.000000 1324.000000,1.000000 
	C1324.000000,458.333344 1324.000000,915.666687 1324.000000,1373.000000 
	C1124.500000,1373.000000 925.000000,1373.000000 725.000000,1373.000000 
M561.601562,649.016785 
	C532.951538,649.027283 504.301453,649.036133 475.651398,649.050598 
	C472.651703,649.052124 469.614990,648.822937 466.670227,649.234985 
	C465.466522,649.403320 463.521851,650.979370 463.507721,651.938477 
	C463.301910,665.903564 463.366425,679.872681 463.366425,694.837036 
	C484.566956,694.837036 505.590363,694.837036 526.954346,694.837036 
	C526.954346,741.250427 526.954346,786.666870 526.954346,832.689941 
	C605.876953,832.689941 684.282776,832.689941 762.774780,832.689941 
	C762.774780,848.379517 762.774780,863.457581 762.774780,878.907959 
	C699.755615,878.907959 636.987122,878.907959 573.999573,878.907959 
	C573.789307,880.529480 573.484192,881.816711 573.476624,883.105591 
	C573.402161,895.770325 573.519409,908.438171 573.259644,921.098572 
	C573.170532,925.442688 574.542480,926.724854 578.949524,926.706909 
	C645.441345,926.436523 711.933838,926.341309 778.426208,926.212341 
	C788.535767,926.192749 798.645447,926.209656 808.752930,926.209656 
	C808.752930,941.929077 808.752930,957.311462 808.752930,973.334106 
	C791.458923,973.334106 774.558350,973.334106 757.868835,973.334106 
	C757.868835,988.359802 757.868835,1002.733154 757.868835,1017.594116 
	C857.480896,1017.594116 956.550903,1017.594116 1055.881348,1017.594116 
	C1055.881348,1003.053528 1055.881348,988.615662 1055.881348,973.185913 
	C1021.006714,973.185913 986.158081,973.185913 951.302246,973.185913 
	C951.302246,957.117188 951.302246,942.041077 951.302246,926.313354 
	C984.112122,926.313354 1016.552368,926.313354 1049.280273,926.313354 
	C1049.574463,923.912048 1049.957031,922.125244 1049.986572,920.332581 
	C1050.181885,908.503113 1050.149536,896.667603 1050.523560,884.844604 
	C1050.663696,880.410889 1049.480347,878.926147 1044.741943,878.963074 
	C1015.912720,879.187988 987.080750,879.054871 958.249634,879.041504 
	C955.977661,879.040466 953.705688,879.041382 951.561829,879.041382 
	C951.561829,863.265442 951.561829,848.227478 951.561829,832.784668 
	C996.760681,832.784668 1041.360718,832.784668 1086.325317,832.784668 
	C1086.325317,816.670288 1086.325317,800.969177 1086.325317,784.752136 
	C1059.655884,784.752136 1033.403076,784.752136 1007.235596,784.752136 
	C1007.235596,766.004883 1007.235596,747.776733 1007.235596,729.421387 
	C1034.051636,729.421387 1060.449219,729.421387 1087.138062,729.421387 
	C1087.138062,744.015869 1087.123047,758.170776 1087.144043,772.325684 
	C1087.155640,780.193054 1087.363403,780.714233 1095.133301,780.723145 
	C1108.903931,780.739014 1122.657227,781.632202 1136.377441,778.467712 
	C1149.443359,775.454163 1154.614380,767.279968 1149.206177,755.053711 
	C1142.895142,740.785767 1136.374023,726.602478 1129.590332,712.553223 
	C1106.566406,664.869751 1083.346069,617.281067 1060.339722,569.589111 
	C1058.427246,565.624451 1056.535767,561.191772 1056.389526,556.916504 
	C1055.899780,542.601807 1056.025635,528.256042 1056.323608,513.930664 
	C1056.408569,509.850525 1055.354980,508.982086 1051.366577,508.988831 
	C1006.203918,509.065033 961.040955,508.933655 915.878113,508.821167 
	C913.450012,508.815125 911.022644,508.482513 908.548218,508.298462 
	C908.548218,492.992615 908.548218,478.249023 908.548218,462.744141 
	C957.832275,462.744141 1006.741455,462.744141 1055.645386,462.744141 
	C1055.645386,447.927032 1055.645386,433.879913 1055.645386,419.117401 
	C1044.260498,419.117401 1033.298706,419.131653 1022.336914,419.114960 
	C968.174561,419.032562 914.012146,418.910309 859.849792,418.917053 
	C855.711487,418.917572 854.007690,418.022949 854.194519,413.354462 
	C854.620728,402.705170 854.365784,392.028534 854.384338,381.363007 
	C854.390015,378.100952 854.385193,374.838928 854.385193,371.066528 
	C921.781250,371.066528 988.679993,371.066528 1055.781372,371.066528 
	C1055.781372,355.771271 1055.781372,340.999512 1055.781372,325.323608 
	C1021.723938,325.323608 987.850098,325.323608 953.632324,325.323608 
	C953.632324,309.816162 953.632324,295.211792 953.632324,279.804810 
	C987.718933,279.804810 1021.758972,279.804810 1055.691895,279.804810 
	C1055.691895,263.431335 1055.691895,247.861603 1055.691895,231.996994 
	C1053.947144,231.996994 1052.634766,231.996475 1051.322510,231.997055 
	C966.828674,232.034546 882.334900,232.086243 797.841064,232.105530 
	C721.179871,232.123032 644.518616,232.153366 567.857788,231.991776 
	C562.891724,231.981293 561.687561,233.486481 561.795898,238.217606 
	C562.039978,248.874146 561.678772,259.544312 561.579529,270.209045 
	C561.550781,273.297058 561.575134,276.385559 561.575134,280.086029 
	C628.713989,280.086029 694.927856,280.086029 761.421936,280.086029 
	C761.421936,295.479034 761.421936,310.222565 761.421936,325.701752 
	C680.530823,325.701752 599.851074,325.701752 518.892212,325.701752 
	C518.892212,341.206665 518.892212,355.976898 518.892212,371.345581 
	C583.266968,371.345581 647.457520,371.345581 711.460266,371.345581 
	C711.460266,386.896484 711.460266,401.950745 711.460266,417.179932 
	C647.147095,417.885223 583.243225,418.585999 519.068359,419.289734 
	C519.068359,433.787598 519.068359,447.887878 519.068359,462.756897 
	C615.232544,462.756897 711.142273,462.756897 806.969482,462.756897 
	C806.969482,478.441986 806.969482,493.355103 806.969482,508.785339 
	C743.113586,508.785339 679.682434,508.785339 616.011292,508.785339 
	C615.729187,510.525970 615.354797,511.795746 615.343384,513.068787 
	C615.238770,524.729553 615.153809,536.390869 615.151489,548.052063 
	C615.149780,556.768311 615.263062,556.823547 624.084351,556.900391 
	C625.417480,556.911987 626.750793,556.920776 628.083984,556.920776 
	C685.579956,556.920166 743.075989,556.918457 800.571960,556.916809 
	C803.348999,556.916748 806.126099,556.916809 808.842957,556.916809 
	C808.842957,572.399109 808.842957,587.313354 808.842957,602.627014 
	C806.082642,602.770813 803.622803,603.008240 801.162659,603.010559 
	C771.831360,603.037903 742.499573,603.146118 713.168945,603.005554 
	C665.342224,602.776306 617.515625,602.443359 569.691040,601.957153 
	C564.651184,601.905884 563.031921,603.442932 563.117554,608.473755 
	C563.347168,621.966187 563.094238,635.466736 562.724121,649.167236 
	C562.724121,649.167236 562.404236,649.352661 561.601562,649.016785 
M409.816437,1170.497314 
	C409.816437,1175.280396 409.816437,1180.063477 409.816437,1185.546265 
	C452.124054,1185.546265 493.915009,1185.546265 535.705994,1185.546265 
	C577.424011,1185.546265 619.141968,1185.546265 660.712769,1185.546265 
	C660.712769,1201.055176 660.712769,1215.956909 660.712769,1231.406006 
	C627.614197,1231.406006 594.865295,1231.406006 561.908691,1231.406006 
	C561.908691,1246.515015 561.908691,1261.066040 561.908691,1275.893433 
	C563.456726,1275.981934 564.597046,1276.108765 565.736694,1276.103516 
	C660.046326,1275.675903 754.355835,1275.220093 848.665710,1274.867188 
	C852.351624,1274.853394 852.545776,1273.171021 852.543945,1270.244629 
	C852.510437,1215.422852 852.570496,1160.601074 852.580078,1105.779297 
	C852.580444,1103.865967 852.263489,1101.952515 852.032043,1099.334106 
	C803.189941,1099.334106 754.785522,1099.334106 705.384399,1099.334106 
	C705.384399,1086.061401 705.384399,1073.522949 705.384399,1060.378418 
	C687.586548,1060.378418 670.789368,1060.378418 653.485107,1060.378418 
	C653.485107,1048.165405 653.485107,1036.595825 653.485107,1024.077881 
	C663.565247,1024.077881 673.529236,1024.128540 683.491638,1024.024414 
	C685.025818,1024.008301 687.764893,1023.513123 687.893616,1022.844299 
	C689.072754,1016.717957 693.727600,1018.016418 697.669922,1017.974426 
	C705.912903,1017.886719 714.157532,1017.947876 722.545654,1017.947876 
	C722.545654,1002.126465 722.545654,987.712219 722.545654,973.377136 
	C655.124268,973.377136 588.055969,973.377136 520.663208,973.377136 
	C520.493469,975.144897 520.243652,976.604675 520.230347,978.066528 
	C520.124146,989.729858 520.195862,1001.396912 519.910461,1013.055420 
	C519.819336,1016.778015 520.948181,1017.934753 524.689941,1017.912903 
	C543.185120,1017.804688 561.681885,1017.944763 580.177979,1018.020691 
	C581.932556,1018.027893 583.686523,1018.197144 585.629150,1018.301270 
	C585.629150,1027.792847 585.629150,1036.727539 585.629150,1046.671021 
	C544.417664,1046.671021 503.417816,1046.671021 462.175903,1046.671021 
	C462.175903,1062.446533 462.175903,1077.213745 462.175903,1092.918579 
	C512.080933,1092.918579 561.801819,1092.918579 611.172363,1092.918579 
	C611.172363,1108.260498 611.172363,1122.661987 611.172363,1137.823730 
	C543.859375,1137.823730 477.164490,1137.823730 409.821655,1137.823730 
	C409.821655,1148.891113 409.821655,1159.194336 409.816437,1170.497314 
M174.664276,754.052856 
	C189.236313,754.052856 203.808350,754.052856 218.565582,754.052856 
	C218.565582,739.026367 218.445221,724.579956 218.651306,710.138184 
	C218.701981,706.586060 217.193008,705.926208 214.229080,705.942627 
	C200.577072,706.018188 186.924011,706.077087 173.272659,705.970642 
	C170.006470,705.945129 168.906631,707.197083 168.897522,710.348938 
	C168.865311,721.502930 168.651825,732.656250 168.527435,743.810120 
	C168.490860,747.088684 168.521805,750.368042 168.521805,754.044312 
	C170.762085,754.044312 172.235764,754.044312 174.664276,754.052856 
M278.934021,475.513977 
	C278.934021,471.735291 278.934021,467.956604 278.934021,463.833008 
	C263.732330,463.833008 248.937973,463.775330 234.146729,463.961609 
	C233.151123,463.974091 231.335068,465.817749 231.322311,466.827698 
	C231.137283,481.466553 231.195496,496.108490 231.195496,511.025757 
	C247.196930,511.025757 262.897186,511.025757 278.930939,511.025757 
	C278.930939,499.145264 278.930939,487.827026 278.934021,475.513977 
M512.195618,885.515625 
	C512.195618,882.264771 512.195618,879.013977 512.195618,876.130859 
	C495.954956,876.130859 480.526306,876.130859 464.806396,876.130859 
	C464.806396,892.324097 464.806396,908.032776 464.806396,923.794678 
	C480.879944,923.794678 496.278900,923.794678 512.195679,923.794678 
	C512.195679,911.108032 512.195679,898.809082 512.195618,885.515625 
M392.233948,1045.575317 
	C378.942047,1045.575317 365.650116,1045.575317 351.729279,1045.575317 
	C351.729279,1061.413818 351.729279,1076.633789 351.729279,1092.239990 
	C367.061584,1092.239990 382.659851,1092.239990 398.486938,1092.239990 
	C398.486938,1076.820068 398.486938,1061.467163 398.486938,1045.924316 
	C396.444763,1045.822876 394.802063,1045.741333 392.233948,1045.575317 
M441.496796,372.010925 
	C445.820343,371.979736 450.145386,371.865692 454.466888,371.945831 
	C457.469666,372.001587 458.868744,371.289764 458.748322,367.720398 
	C458.451385,358.919678 458.705933,350.100494 458.727631,341.288757 
	C458.739777,336.350098 458.729797,331.411377 458.729797,326.177795 
	C442.367432,326.177795 426.804382,326.177795 410.576233,326.177795 
	C410.576233,341.443237 410.576233,356.443512 410.576233,372.018829 
	C420.610870,372.018829 430.554382,372.018829 441.496796,372.010925 
M371.500305,792.954651 
	C381.256927,792.954651 391.013519,792.954651 400.762909,792.954651 
	C400.762909,778.592590 400.765381,764.968506 400.760681,751.344421 
	C400.759827,748.813477 399.519806,748.014587 396.979950,748.033081 
	C383.000763,748.134705 369.019409,748.148071 355.040955,747.995789 
	C351.505615,747.957275 350.925049,749.647095 350.933929,752.607239 
	C350.965881,763.257812 350.840057,773.908936 350.780823,784.559814 
	C350.766418,787.148376 350.778656,789.737122 350.778656,792.954773 
	C357.913666,792.954773 364.207123,792.954773 371.500305,792.954651 
M411.321014,970.177551 
	C411.321014,984.768860 411.321014,999.360107 411.321014,1014.369507 
	C427.215851,1014.369507 442.895081,1014.369507 458.465698,1014.369507 
	C458.465698,999.347656 458.465698,984.763489 458.465698,969.659790 
	C443.244171,969.005310 428.336273,968.342651 413.424133,967.794312 
	C412.758514,967.769836 412.054657,968.784546 411.321014,970.177551 
M475.546265,511.435303 
	C471.767731,511.435303 467.989166,511.435303 463.936188,511.435303 
	C463.936188,526.812378 463.936188,541.390320 463.936188,556.407654 
	C480.116425,556.407654 495.971710,556.407654 511.754272,556.407654 
	C511.754272,541.207031 511.754272,526.336426 511.754272,511.418610 
	C499.755066,511.418610 488.144897,511.418610 475.546265,511.435303 
M444.278870,419.776062 
	C433.029999,419.776062 421.781128,419.776062 410.252045,419.776062 
	C410.252045,434.482758 410.252045,448.481049 410.252045,462.513977 
	C426.496124,462.513977 442.347687,462.513977 458.397156,462.513977 
	C458.397156,448.092651 458.397156,434.074341 458.397156,419.768372 
	C453.790863,419.768372 449.507019,419.768372 444.278870,419.776062 
z"/>
<path fill="#FEFEFE" opacity="1.000000" stroke="none" 
	d="
M563.033020,648.964111 
	C563.094238,635.466736 563.347168,621.966187 563.117554,608.473755 
	C563.031921,603.442932 564.651184,601.905884 569.691040,601.957153 
	C617.515625,602.443359 665.342224,602.776306 713.168945,603.005554 
	C742.499573,603.146118 771.831360,603.037903 801.162659,603.010559 
	C803.622803,603.008240 806.082642,602.770813 808.842957,602.627014 
	C808.842957,587.313354 808.842957,572.399109 808.842957,556.916809 
	C806.126099,556.916809 803.348999,556.916748 800.571960,556.916809 
	C743.075989,556.918457 685.579956,556.920166 628.083984,556.920776 
	C626.750793,556.920776 625.417480,556.911987 624.084351,556.900391 
	C615.263062,556.823547 615.149780,556.768311 615.151489,548.052063 
	C615.153809,536.390869 615.238770,524.729553 615.343384,513.068787 
	C615.354797,511.795746 615.729187,510.525970 616.011292,508.785339 
	C679.682434,508.785339 743.113586,508.785339 806.969482,508.785339 
	C806.969482,493.355103 806.969482,478.441986 806.969482,462.756897 
	C711.142273,462.756897 615.232544,462.756897 519.068359,462.756897 
	C519.068359,447.887878 519.068359,433.787598 519.068359,419.289734 
	C583.243225,418.585999 647.147095,417.885223 711.460266,417.179932 
	C711.460266,401.950745 711.460266,386.896484 711.460266,371.345581 
	C647.457520,371.345581 583.266968,371.345581 518.892212,371.345581 
	C518.892212,355.976898 518.892212,341.206665 518.892212,325.701752 
	C599.851074,325.701752 680.530823,325.701752 761.421936,325.701752 
	C761.421936,310.222565 761.421936,295.479034 761.421936,280.086029 
	C694.927856,280.086029 628.713989,280.086029 561.575134,280.086029 
	C561.575134,276.385559 561.550781,273.297058 561.579529,270.209045 
	C561.678772,259.544312 562.039978,248.874146 561.795898,238.217606 
	C561.687561,233.486481 562.891724,231.981293 567.857788,231.991776 
	C644.518616,232.153366 721.179871,232.123032 797.841064,232.105530 
	C882.334900,232.086243 966.828674,232.034546 1051.322510,231.997055 
	C1052.634766,231.996475 1053.947144,231.996994 1055.691895,231.996994 
	C1055.691895,247.861603 1055.691895,263.431335 1055.691895,279.804810 
	C1021.758972,279.804810 987.718933,279.804810 953.632324,279.804810 
	C953.632324,295.211792 953.632324,309.816162 953.632324,325.323608 
	C987.850098,325.323608 1021.723938,325.323608 1055.781372,325.323608 
	C1055.781372,340.999512 1055.781372,355.771271 1055.781372,371.066528 
	C988.679993,371.066528 921.781250,371.066528 854.385193,371.066528 
	C854.385193,374.838928 854.390015,378.100952 854.384338,381.363007 
	C854.365784,392.028534 854.620728,402.705170 854.194519,413.354462 
	C854.007690,418.022949 855.711487,418.917572 859.849792,418.917053 
	C914.012146,418.910309 968.174561,419.032562 1022.336914,419.114960 
	C1033.298706,419.131653 1044.260498,419.117401 1055.645386,419.117401 
	C1055.645386,433.879913 1055.645386,447.927032 1055.645386,462.744141 
	C1006.741455,462.744141 957.832275,462.744141 908.548218,462.744141 
	C908.548218,478.249023 908.548218,492.992615 908.548218,508.298462 
	C911.022644,508.482513 913.450012,508.815125 915.878113,508.821167 
	C961.040955,508.933655 1006.203918,509.065033 1051.366577,508.988831 
	C1055.354980,508.982086 1056.408569,509.850525 1056.323608,513.930664 
	C1056.025635,528.256042 1055.899780,542.601807 1056.389526,556.916504 
	C1056.535767,561.191772 1058.427246,565.624451 1060.339722,569.589111 
	C1083.346069,617.281067 1106.566406,664.869751 1129.590332,712.553223 
	C1136.374023,726.602478 1142.895142,740.785767 1149.206177,755.053711 
	C1154.614380,767.279968 1149.443359,775.454163 1136.377441,778.467712 
	C1122.657227,781.632202 1108.903931,780.739014 1095.133301,780.723145 
	C1087.363403,780.714233 1087.155640,780.193054 1087.144043,772.325684 
	C1087.123047,758.170776 1087.138062,744.015869 1087.138062,729.421387 
	C1060.449219,729.421387 1034.051636,729.421387 1007.235596,729.421387 
	C1007.235596,747.776733 1007.235596,766.004883 1007.235596,784.752136 
	C1033.403076,784.752136 1059.655884,784.752136 1086.325317,784.752136 
	C1086.325317,800.969177 1086.325317,816.670288 1086.325317,832.784668 
	C1041.360718,832.784668 996.760681,832.784668 951.561829,832.784668 
	C951.561829,848.227478 951.561829,863.265442 951.561829,879.041382 
	C953.705688,879.041382 955.977661,879.040466 958.249634,879.041504 
	C987.080750,879.054871 1015.912720,879.187988 1044.741943,878.963074 
	C1049.480347,878.926147 1050.663696,880.410889 1050.523560,884.844604 
	C1050.149536,896.667603 1050.181885,908.503113 1049.986572,920.332581 
	C1049.957031,922.125244 1049.574463,923.912048 1049.280273,926.313354 
	C1016.552368,926.313354 984.112122,926.313354 951.302246,926.313354 
	C951.302246,942.041077 951.302246,957.117188 951.302246,973.185913 
	C986.158081,973.185913 1021.006714,973.185913 1055.881348,973.185913 
	C1055.881348,988.615662 1055.881348,1003.053528 1055.881348,1017.594116 
	C956.550903,1017.594116 857.480896,1017.594116 757.868835,1017.594116 
	C757.868835,1002.733154 757.868835,988.359802 757.868835,973.334106 
	C774.558350,973.334106 791.458923,973.334106 808.752930,973.334106 
	C808.752930,957.311462 808.752930,941.929077 808.752930,926.209656 
	C798.645447,926.209656 788.535767,926.192749 778.426208,926.212341 
	C711.933838,926.341309 645.441345,926.436523 578.949524,926.706909 
	C574.542480,926.724854 573.170532,925.442688 573.259644,921.098572 
	C573.519409,908.438171 573.402161,895.770325 573.476624,883.105591 
	C573.484192,881.816711 573.789307,880.529480 573.999573,878.907959 
	C636.987122,878.907959 699.755615,878.907959 762.774780,878.907959 
	C762.774780,863.457581 762.774780,848.379517 762.774780,832.689941 
	C684.282776,832.689941 605.876953,832.689941 526.954346,832.689941 
	C526.954346,786.666870 526.954346,741.250427 526.954346,694.837036 
	C505.590363,694.837036 484.566956,694.837036 463.366425,694.837036 
	C463.366425,679.872681 463.301910,665.903564 463.507721,651.938477 
	C463.521851,650.979370 465.466522,649.403320 466.670227,649.234985 
	C469.614990,648.822937 472.651703,649.052124 475.651398,649.050598 
	C504.301453,649.036133 532.951538,649.027283 562.066650,649.623230 
	C562.653809,653.221741 562.879333,656.213684 562.881714,659.205811 
	C562.901123,683.863342 562.879150,708.520935 562.869873,733.178467 
	C562.869202,734.941956 562.869751,736.705505 562.869751,738.739624 
	C580.643677,738.739624 597.703979,738.739624 615.416260,738.739624 
	C615.416260,724.186890 615.416260,709.951294 615.416260,695.209900 
	C630.960754,695.209900 645.861450,695.209900 660.826660,695.209900 
	C660.826660,679.485901 660.826660,664.285217 660.826660,648.964111 
	C627.962097,648.964111 595.497559,648.964111 563.033020,648.964111 
M963.041382,599.500000 
	C963.041382,585.425293 963.041382,571.350586 963.041382,557.216187 
	C936.732117,557.216187 911.008362,557.216187 885.271484,557.216187 
	C885.271484,573.053040 885.271484,588.586182 885.271484,604.846924 
	C895.496948,604.846924 905.371338,604.846924 915.110229,604.846924 
	C915.411682,606.037781 915.636230,606.511963 915.636780,606.986389 
	C915.651855,619.802368 915.816833,632.622009 915.545715,645.432312 
	C915.451294,649.892944 916.952454,651.212646 921.266357,651.031494 
	C928.246155,650.738281 935.248413,650.987427 942.241211,650.995972 
	C949.009216,651.004211 955.777222,650.997681 963.041382,650.997681 
	C963.041382,633.729126 963.041382,617.114563 963.041382,599.500000 
M718.042053,762.500000 
	C718.042053,754.738464 718.042053,746.976929 718.042053,739.306030 
	C686.497192,739.306030 655.469421,739.306030 624.784912,739.306030 
	C624.784912,754.537109 624.784912,769.301270 624.784912,784.534424 
	C656.061768,784.534424 686.764343,784.534424 718.040833,784.534424 
	C718.040833,777.408630 718.040833,770.454285 718.042053,762.500000 
z"/>
<path fill="#FEFEFE" opacity="1.000000" stroke="none" 
	d="
M409.819031,1169.997559 
	C409.821655,1159.194336 409.821655,1148.891113 409.821655,1137.823730 
	C477.164490,1137.823730 543.859375,1137.823730 611.172363,1137.823730 
	C611.172363,1122.661987 611.172363,1108.260498 611.172363,1092.918579 
	C561.801819,1092.918579 512.080933,1092.918579 462.175903,1092.918579 
	C462.175903,1077.213745 462.175903,1062.446533 462.175903,1046.671021 
	C503.417816,1046.671021 544.417664,1046.671021 585.629150,1046.671021 
	C585.629150,1036.727539 585.629150,1027.792847 585.629150,1018.301270 
	C583.686523,1018.197144 581.932556,1018.027893 580.177979,1018.020691 
	C561.681885,1017.944763 543.185120,1017.804688 524.689941,1017.912903 
	C520.948181,1017.934753 519.819336,1016.778015 519.910461,1013.055420 
	C520.195862,1001.396912 520.124146,989.729858 520.230347,978.066528 
	C520.243652,976.604675 520.493469,975.144897 520.663208,973.377136 
	C588.055969,973.377136 655.124268,973.377136 722.545654,973.377136 
	C722.545654,987.712219 722.545654,1002.126465 722.545654,1017.947876 
	C714.157532,1017.947876 705.912903,1017.886719 697.669922,1017.974426 
	C693.727600,1018.016418 689.072754,1016.717957 687.893616,1022.844299 
	C687.764893,1023.513123 685.025818,1024.008301 683.491638,1024.024414 
	C673.529236,1024.128540 663.565247,1024.077881 653.485107,1024.077881 
	C653.485107,1036.595825 653.485107,1048.165405 653.485107,1060.378418 
	C670.789368,1060.378418 687.586548,1060.378418 705.384399,1060.378418 
	C705.384399,1073.522949 705.384399,1086.061401 705.384399,1099.334106 
	C754.785522,1099.334106 803.189941,1099.334106 852.032043,1099.334106 
	C852.263489,1101.952515 852.580444,1103.865967 852.580078,1105.779297 
	C852.570496,1160.601074 852.510437,1215.422852 852.543945,1270.244629 
	C852.545776,1273.171021 852.351624,1274.853394 848.665710,1274.867188 
	C754.355835,1275.220093 660.046326,1275.675903 565.736694,1276.103516 
	C564.597046,1276.108765 563.456726,1275.981934 561.908691,1275.893433 
	C561.908691,1261.066040 561.908691,1246.515015 561.908691,1231.406006 
	C594.865295,1231.406006 627.614197,1231.406006 660.712769,1231.406006 
	C660.712769,1215.956909 660.712769,1201.055176 660.712769,1185.546265 
	C619.141968,1185.546265 577.424011,1185.546265 535.705994,1185.546265 
	C493.915009,1185.546265 452.124054,1185.546265 409.816437,1185.546265 
	C409.816437,1180.063477 409.816437,1175.280396 409.819031,1169.997559 
z"/>
<path fill="#FDFDFD" opacity="1.000000" stroke="none" 
	d="
M174.186859,754.048584 
	C172.235764,754.044312 170.762085,754.044312 168.521805,754.044312 
	C168.521805,750.368042 168.490860,747.088684 168.527435,743.810120 
	C168.651825,732.656250 168.865311,721.502930 168.897522,710.348938 
	C168.906631,707.197083 170.006470,705.945129 173.272659,705.970642 
	C186.924011,706.077087 200.577072,706.018188 214.229080,705.942627 
	C217.193008,705.926208 218.701981,706.586060 218.651306,710.138184 
	C218.445221,724.579956 218.565582,739.026367 218.565582,754.052856 
	C203.808350,754.052856 189.236313,754.052856 174.186859,754.048584 
z"/>
<path fill="#FBFBFB" opacity="1.000000" stroke="none" 
	d="
M278.932495,476.011383 
	C278.930939,487.827026 278.930939,499.145264 278.930939,511.025757 
	C262.897186,511.025757 247.196930,511.025757 231.195496,511.025757 
	C231.195496,496.108490 231.137283,481.466553 231.322311,466.827698 
	C231.335068,465.817749 233.151123,463.974091 234.146729,463.961609 
	C248.937973,463.775330 263.732330,463.833008 278.934021,463.833008 
	C278.934021,467.956604 278.934021,471.735291 278.932495,476.011383 
z"/>
<path fill="#FDFDFD" opacity="1.000000" stroke="none" 
	d="
M512.195679,886.012817 
	C512.195679,898.809082 512.195679,911.108032 512.195679,923.794678 
	C496.278900,923.794678 480.879944,923.794678 464.806396,923.794678 
	C464.806396,908.032776 464.806396,892.324097 464.806396,876.130859 
	C480.526306,876.130859 495.954956,876.130859 512.195618,876.130859 
	C512.195618,879.013977 512.195618,882.264771 512.195679,886.012817 
z"/>
<path fill="#F9F9F9" opacity="1.000000" stroke="none" 
	d="
M392.696655,1045.617432 
	C394.802063,1045.741333 396.444763,1045.822876 398.486938,1045.924316 
	C398.486938,1061.467163 398.486938,1076.820068 398.486938,1092.239990 
	C382.659851,1092.239990 367.061584,1092.239990 351.729279,1092.239990 
	C351.729279,1076.633789 351.729279,1061.413818 351.729279,1045.575317 
	C365.650116,1045.575317 378.942047,1045.575317 392.696655,1045.617432 
z"/>
<path fill="#FCFCFC" opacity="1.000000" stroke="none" 
	d="
M440.997314,372.014893 
	C430.554382,372.018829 420.610870,372.018829 410.576233,372.018829 
	C410.576233,356.443512 410.576233,341.443237 410.576233,326.177795 
	C426.804382,326.177795 442.367432,326.177795 458.729797,326.177795 
	C458.729797,331.411377 458.739777,336.350098 458.727631,341.288757 
	C458.705933,350.100494 458.451385,358.919678 458.748322,367.720398 
	C458.868744,371.289764 457.469666,372.001587 454.466888,371.945831 
	C450.145386,371.865692 445.820343,371.979736 440.997314,372.014893 
z"/>
<path fill="#FCFCFC" opacity="1.000000" stroke="none" 
	d="
M371.000458,792.954712 
	C364.207123,792.954773 357.913666,792.954773 350.778656,792.954773 
	C350.778656,789.737122 350.766418,787.148376 350.780823,784.559814 
	C350.840057,773.908936 350.965881,763.257812 350.933929,752.607239 
	C350.925049,749.647095 351.505615,747.957275 355.040955,747.995789 
	C369.019409,748.148071 383.000763,748.134705 396.979950,748.033081 
	C399.519806,748.014587 400.759827,748.813477 400.760681,751.344421 
	C400.765381,764.968506 400.762909,778.592590 400.762909,792.954651 
	C391.013519,792.954651 381.256927,792.954651 371.000458,792.954712 
z"/>
<path fill="#FAFAFA" opacity="1.000000" stroke="none" 
	d="
M411.344818,969.746399 
	C412.054657,968.784546 412.758514,967.769836 413.424133,967.794312 
	C428.336273,968.342651 443.244171,969.005310 458.465698,969.659790 
	C458.465698,984.763489 458.465698,999.347656 458.465698,1014.369507 
	C442.895081,1014.369507 427.215851,1014.369507 411.321014,1014.369507 
	C411.321014,999.360107 411.321014,984.768860 411.344818,969.746399 
z"/>
<path fill="#FBFBFB" opacity="1.000000" stroke="none" 
	d="
M476.040497,511.426941 
	C488.144897,511.418610 499.755066,511.418610 511.754272,511.418610 
	C511.754272,526.336426 511.754272,541.207031 511.754272,556.407654 
	C495.971710,556.407654 480.116425,556.407654 463.936188,556.407654 
	C463.936188,541.390320 463.936188,526.812378 463.936188,511.435303 
	C467.989166,511.435303 471.767731,511.435303 476.040497,511.426941 
z"/>
<path fill="#FBFBFB" opacity="1.000000" stroke="none" 
	d="
M444.751007,419.772217 
	C449.507019,419.768372 453.790863,419.768372 458.397156,419.768372 
	C458.397156,434.074341 458.397156,448.092651 458.397156,462.513977 
	C442.347687,462.513977 426.496124,462.513977 410.252045,462.513977 
	C410.252045,448.481049 410.252045,434.482758 410.252045,419.776062 
	C421.781128,419.776062 433.029999,419.776062 444.751007,419.772217 
z"/>
<path fill="#000000" opacity="1.000000" stroke="none" 
	d="
M562.878540,649.065674 
	C595.497559,648.964111 627.962097,648.964111 660.826660,648.964111 
	C660.826660,664.285217 660.826660,679.485901 660.826660,695.209900 
	C645.861450,695.209900 630.960754,695.209900 615.416260,695.209900 
	C615.416260,709.951294 615.416260,724.186890 615.416260,738.739624 
	C597.703979,738.739624 580.643677,738.739624 562.869751,738.739624 
	C562.869751,736.705505 562.869202,734.941956 562.869873,733.178467 
	C562.879150,708.520935 562.901123,683.863342 562.881714,659.205811 
	C562.879333,656.213684 562.653809,653.221741 562.468018,649.791138 
	C562.404236,649.352661 562.724121,649.167236 562.878540,649.065674 
z"/>
<path fill="#010101" opacity="1.000000" stroke="none" 
	d="
M963.041382,600.000000 
	C963.041382,617.114563 963.041382,633.729126 963.041382,650.997681 
	C955.777222,650.997681 949.009216,651.004211 942.241211,650.995972 
	C935.248413,650.987427 928.246155,650.738281 921.266357,651.031494 
	C916.952454,651.212646 915.451294,649.892944 915.545715,645.432312 
	C915.816833,632.622009 915.651855,619.802368 915.636780,606.986389 
	C915.636230,606.511963 915.411682,606.037781 915.110229,604.846924 
	C905.371338,604.846924 895.496948,604.846924 885.271484,604.846924 
	C885.271484,588.586182 885.271484,573.053040 885.271484,557.216187 
	C911.008362,557.216187 936.732117,557.216187 963.041382,557.216187 
	C963.041382,571.350586 963.041382,585.425293 963.041382,600.000000 
z"/>
<path fill="#010101" opacity="1.000000" stroke="none" 
	d="
M718.041443,762.999939 
	C718.040833,770.454285 718.040833,777.408630 718.040833,784.534424 
	C686.764343,784.534424 656.061768,784.534424 624.784912,784.534424 
	C624.784912,769.301270 624.784912,754.537109 624.784912,739.306030 
	C655.469421,739.306030 686.497192,739.306030 718.042053,739.306030 
	C718.042053,746.976929 718.042053,754.738464 718.041443,762.999939 
z"/>
</svg>